<?xml version="1.0" encoding="UTF-8" standalone="no"?>
<!-- Created with Inkscape (http://www.inkscape.org/) -->

<svg
   version="1.1"
   id="svg2"
   xml:space="preserve"
   width="2654.6665"
   height="3147.313"
   viewBox="0 0 2654.6665 3147.3129"
   sodipodi:docname="b875483f18591ca18d670238248fa1c5.ai"
   xmlns:inkscape="http://www.inkscape.org/namespaces/inkscape"
   xmlns:sodipodi="http://sodipodi.sourceforge.net/DTD/sodipodi-0.dtd"
   xmlns="http://www.w3.org/2000/svg"
   xmlns:svg="http://www.w3.org/2000/svg"><defs
     id="defs6"><clipPath
       clipPathUnits="userSpaceOnUse"
       id="clipPath16"><path
         d="M 0,2360.485 H 1991 V 0 H 0 Z"
         id="path14" /></clipPath></defs><sodipodi:namedview
     id="namedview4"
     pagecolor="#ffffff"
     bordercolor="#666666"
     borderopacity="1.0"
     inkscape:pageshadow="2"
     inkscape:pageopacity="0.0"
     inkscape:pagecheckerboard="0" /><g
     id="g8"
     inkscape:groupmode="layer"
     inkscape:label="b875483f18591ca18d670238248fa1c5"
     transform="matrix(1.3333333,0,0,-1.3333333,0,3147.3131)"><g
       id="g10"><g
         id="g12"
         clip-path="url(#clipPath16)"><g
           id="g18"
           transform="translate(1418.3882,1164.006)"><path
             d="m 0,0 544.535,186.831 c 16.069,5.515 26.942,20.476 27.176,37.414 l 0.9,64.242 c -0.197,-13.363 -7.83,-26.627 -23.152,-31.882 L -63.692,46.413 -52.574,-600.314 c 0.572,-33.224 -41.849,-47.766 -61.909,-21.22 l -390.319,516.557 -613.446,-210.735 c -6.554,-2.25 -12.873,-2.396 -18.664,-1.125 l -4.296,1.158 78.855,-29.312 c 17.612,-6.624 36.996,-6.907 54.793,-0.799 l 503.358,172.729 375.204,-496.174 c 45.802,-61.362 140.759,-28.301 139.669,48.168 z"
             style="fill:#d81f33;fill-opacity:1;fill-rule:evenodd;stroke:none"
             id="path20" /></g><g
           id="g22"
           transform="translate(1335.1243,2325.5364)"><path
             d="m 0,0 10.831,-647.138 59.369,-19.326 -7.469,455.643 c -0.697,39.675 -8.714,78.815 -23.61,115.212 L -1.809,10.926 C -0.728,7.583 -0.067,3.947 0,0"
             style="fill:#d81f33;fill-opacity:1;fill-rule:evenodd;stroke:none"
             id="path24" /></g><g
           id="g26"
           transform="translate(243.8339,1952.5103)"><path
             d="m 0,0 c -2.28,2.955 -3.895,6.069 -5.059,9.226 l 27.158,-77.563 c 10.541,-32.585 26.554,-63.174 47.367,-90.464 l 299.256,-394.062 24.67,35.011 z"
             style="fill:#d81f33;fill-opacity:1;fill-rule:evenodd;stroke:none"
             id="path28" /></g><g
           id="g30"
           transform="translate(1966.7166,1487.0509)"><path
             d="m 0,0 -618.93,190.382 -11.498,649.134 c -0.593,33.375 -43.39,46.508 -62.473,19.166 L -1064.17,326.961 c -79.847,24.911 -440.658,135.094 -619.338,189.618 -31.816,9.714 -57.336,-27.587 -37.377,-53.743 l 389.688,-518.605 -371.318,-532.524 c -19.078,-27.363 7.879,-63.233 39.336,-52.355 l 612.189,211.754 323.444,-431.012 66.075,-88.052 c 20.019,-26.674 62.353,-12.062 61.782,21.324 L -610.784,-276.763 1.11,-65.549 C 32.567,-54.693 31.805,-9.78 0,0"
             style="fill:#ffce34;fill-opacity:1;fill-rule:evenodd;stroke:none"
             id="path32" /></g><g
           id="g34"
           transform="translate(1335.1243,2325.5364)"><path
             d="m 0,0 10.831,-647.138 59.369,-19.326 -7.469,455.643 c -0.697,39.675 -8.714,78.815 -23.61,115.212 L -1.809,10.926 C -1.271,9.26 -0.83,7.529 -0.528,5.705 -0.215,3.881 -0.036,1.976 0,0"
             style="fill:#d81f33;fill-opacity:1;fill-rule:evenodd;stroke:none"
             id="path36" /></g><g
           id="g38"
           transform="translate(243.8285,1952.5209)"><path
             d="m 0,0 c -1.148,1.494 -2.131,3.026 -2.972,4.58 -0.84,1.527 -1.51,3.076 -2.082,4.635 l 27.153,-77.554 c 10.542,-32.586 26.554,-63.175 47.368,-90.466 l 299.255,-394.069 24.675,35.007 z"
             style="fill:#d81f33;fill-opacity:1;fill-rule:evenodd;stroke:none"
             id="path40" /></g><g
           id="g42"
           transform="translate(856.9186,1673.8143)"><path
             d="m 0,0 4.635,-2.266 2.685,0.697 c 32.75,17.079 65.586,23.397 100.372,19.215 7.927,-1.003 13.342,4.879 15.118,11.153 1.863,6.492 0.217,15.206 -7.754,18.953 C 83.433,62.696 30.193,52.196 -0.563,9.149 Z"
             style="fill:#221f1f;fill-opacity:1;fill-rule:nonzero;stroke:none"
             id="path44" /></g><g
           id="g46"
           transform="translate(1303.1884,1536.5876)"><path
             d="m 0,0 -5.112,0.741 -1.819,2.047 c -17.676,32.634 -41.371,56.292 -72.518,72.369 -7.148,3.66 -8.36,11.59 -6.368,17.777 2.08,6.448 8.275,12.766 16.981,11.372 C -34.31,98.902 3.984,60.213 5.544,7.232 Z"
             style="fill:#221f1f;fill-opacity:1;fill-rule:nonzero;stroke:none"
             id="path48" /></g><g
           id="g50"
           transform="translate(949.4022,1393.0347)"><path
             d="m 0,0 c 24.518,-30.935 35.565,-36.903 53.282,-42.35 7.321,-2.265 14.253,-3.703 22.44,-3.747 11.263,-0.131 24.951,2.352 45.269,8.844 11.955,3.791 18.584,9.804 17.804,16.122 -0.649,5.097 -6.368,8.713 -14.555,9.106 -9.877,0.522 -15.726,0.784 -19.797,1.002 -9.314,0.435 -9.314,0.435 -26.771,1.916 l -1.821,0.175 c -3.898,0.349 -7.753,1.089 -11.695,2.222 -3.943,1.307 -7.538,2.832 -11.003,4.749 l -1.256,0.74 C 36.345,7.494 36.345,7.494 28.417,12.374 24.952,14.508 19.927,17.558 11.349,22.743 4.331,27.013 -2.384,27.274 -5.805,23.353 -9.964,18.56 -7.799,9.847 0,0"
             style="fill:#221f1f;fill-opacity:1;fill-rule:nonzero;stroke:none"
             id="path52" /></g><g
           id="g54"
           transform="translate(921.028,1606.3472)"><path
             d="m 0,0 c -28.461,6.187 -56.187,-0.262 -74.207,-17.21 -10.354,-9.804 -11.436,-22.09 -8.014,-29.366 2.426,-5.098 10.31,-7.494 16.894,-6.754 5.025,0.567 29.848,1.961 51.464,-4.705 21.66,-6.666 32.144,-17.907 35.133,-20.39 2.989,-2.484 10.872,-6.449 15.551,-6.492 5.068,-0.131 10.137,1.655 14.598,5.228 8.578,6.753 14.426,20.478 9.097,33.505 C 51.203,-23.484 28.59,-6.231 0,0"
             style="fill:#221f1f;fill-opacity:1;fill-rule:nonzero;stroke:none"
             id="path56" /></g><g
           id="g58"
           transform="translate(1212.5291,1516.7069)"><path
             d="m 0,0 c 27.075,-10.849 46.482,-31.806 51.939,-55.987 3.162,-13.986 -2.816,-24.748 -9.704,-28.843 -4.808,-2.876 -12.692,-0.48 -17.717,3.878 -3.855,3.267 -23.652,18.386 -45.312,25.052 -21.616,6.666 -36.605,3.224 -40.418,2.875 -3.855,-0.392 -12.648,0.785 -16.547,3.312 -4.245,2.788 -7.451,7.058 -9.184,12.548 -3.335,10.457 -0.607,25.096 11.09,32.939 C -55.536,9.323 -27.162,10.936 0,0"
             style="fill:#221f1f;fill-opacity:1;fill-rule:nonzero;stroke:none"
             id="path60" /></g><g
           id="g62"
           transform="translate(1211.7571,1270.3383)"><path
             d="m 0,0 c -6.889,11.676 -13.17,28.799 -22.873,24.921 -6.066,-2.439 -4.245,-8.539 -5.503,-15.423 -0.951,-5.316 -3.118,-10.239 -13.731,-16.426 -8.014,-4.531 -15.421,-8.365 -22.396,-11.546 -18.064,-8.54 -37.732,-15.249 -58.568,-19.954 -39.031,-8.453 -76.979,-7.407 -120.299,5.925 -43.363,13.288 -75.375,33.766 -103.057,62.74 -14.642,15.598 -27.247,32.285 -37.428,49.539 -4.028,6.535 -8.058,13.854 -12.173,22.133 -5.372,11.11 -4.418,16.382 -2.252,21.305 2.815,6.449 7.71,10.5 4.029,15.947 -5.893,8.627 -20.621,-2.048 -32.836,-7.843 -18.108,-8.583 -26.556,-9.541 -24,-20.826 2.513,-10.979 15.855,-1.002 19.538,-13.158 h 0.042 c 9.401,-33.025 41.068,-124.086 115.274,-174.278 15.291,-10.326 32.36,-18.91 51.463,-24.922 l 0.304,-0.087 0.259,-0.087 c 19.148,-5.752 38.121,-8.235 56.533,-8.279 89.411,-0.13 166.303,57.556 192.468,79.646 C -5.373,-22.7 0.13,-38.428 8.317,-30.76 16.721,-22.874 10.223,-17.297 0,0"
             style="fill:#221f1f;fill-opacity:1;fill-rule:nonzero;stroke:none"
             id="path64" /></g><g
           id="g66"
           transform="translate(1082.2787,430.9949)"><path
             d="M 0,0 C 14.512,0 27.754,9.734 38.688,24.133 50.931,40.276 53.91,70.414 47.317,82.039 L 2.271,81.819 C 4.958,76.915 9.263,62.223 9.263,54.51 c 0,-19.119 -14.222,-36.015 -18.4,-38.771 -3.16,-2.057 -3.16,-5.344 -3.16,-6.666 C -12.297,3.03 -8.211,0 0,0"
             style="fill:#221f1f;fill-opacity:1;fill-rule:nonzero;stroke:none"
             id="path68" /></g><g
           id="g70"
           transform="translate(1814.338,132.3217)"><path
             d="m 0,0 c -18.546,0 -34.966,-15.189 -36.71,-33.903 -1.762,-18.697 11.824,-33.866 30.334,-33.866 18.527,0 34.948,15.169 36.691,33.866 C 32.077,-15.189 18.49,0 0,0"
             style="fill:#221f1f;fill-opacity:1;fill-rule:nonzero;stroke:none"
             id="path72" /></g><g
           id="g74"
           transform="translate(1383.564,37.3008)"><path
             d="m 0,0 c -21.815,0.587 -41.558,15.446 -41.558,44.39 0,52.214 64.445,76.255 153.793,84.463 C 83.754,63.178 53.076,-1.47 0,0 m 488.228,340.978 c -48.316,0 -80.503,-49.699 -80.503,-49.699 l 16.384,42.646 H 343.753 L 306.262,227.385 C 282.195,200.48 253.169,184.814 218.911,174.713 L 326.95,458.206 h -35.91 l -0.199,0.036 h -83.263 c -141.097,0 -246.757,-88.118 -246.757,-178.441 0,-29.054 15.239,-49.954 32.731,-61.451 12.425,0 33.167,0.036 51.641,0.036 -5.468,7.879 -12.479,28.192 -12.479,46.869 0,84.924 65.099,160.168 170.65,160.168 h 21.542 c 0,0 -99.211,-261.564 -100.065,-263.805 -184.491,-13.48 -240.29,-63.159 -240.29,-118.569 0,-59.211 73.455,-80.35 108.656,-80.35 119.028,0 181.094,100.406 212.79,176.183 29.553,5.914 56.29,16.106 79.976,30.872 L 235.968,27.623 h 80.357 l 72.873,206.594 c 0,0 21.58,40.258 54.873,40.258 23.469,0 31.442,-8.081 31.442,-8.081 l 50.641,61.029 c 0,0 -10.644,13.555 -37.926,13.555"
             style="fill:#221f1f;fill-opacity:1;fill-rule:nonzero;stroke:none"
             id="path76" /></g><g
           id="g78"
           transform="translate(889.795,364.7242)"><path
             d="m 0,0 c 0,0 -10.644,13.555 -37.925,13.555 -48.317,0 -80.503,-49.699 -80.503,-49.699 l 16.384,42.646 h -80.375 l -43.43,-123.473 c -1.999,-3.747 -3.924,-7.365 -5.722,-10.671 -45.519,-84.904 -92.346,-131.975 -102.535,-131.975 -4.851,0 -5.304,5.198 -1.617,15.023 3.705,9.825 24.612,70.854 65.916,180.424 h -76.869 c -13.35,-34.618 -41.632,-115.796 -53.348,-147.127 -20.561,-25.712 -51.221,-47.512 -63.99,-47.512 -14.241,0 -14.241,14.399 -14.241,18.99 0,44.776 50.896,208.597 148.163,208.597 22.505,0 39.233,-3.856 50.876,-7.787 l 14.587,37.852 c -18.128,10.487 -39.125,15.923 -69.787,15.923 -111.434,0 -181.111,-93.059 -207.975,-171.81 -8.029,-16.126 -19.691,-38.642 -31.315,-57.871 -36.364,-60.24 -101.664,-93.996 -144.639,-93.261 -50.714,0.845 -75.817,29.587 -75.817,106.502 0,82.205 90.729,297.506 197.823,297.506 33.549,0 40.888,-29.954 40.888,-42.443 0,-20.165 -7.793,-32.25 -23.323,-47.971 h 75.035 c 13.987,7.953 28.026,27.916 28.026,53.867 0,30.835 -29.752,74.381 -114.087,74.381 -192.047,0 -299.885,-215.852 -299.995,-344.779 -0.109,-125.989 90.874,-143.657 151.07,-143.657 63.519,0 133.087,39.615 169.651,89.643 5.321,7.769 10.371,15.703 15.112,23.527 6.557,-57.099 43.993,-58.275 61.394,-58.275 25.193,0 58.415,16.86 83.027,37.76 2.833,-26.318 22.814,-37.76 52.058,-37.76 28.717,0 58.541,22.499 86.387,54.344 l -19.09,-54.27 h 80.357 l 72.874,206.595 c 0,0 21.578,40.258 54.873,40.258 23.467,0 31.442,-8.081 31.442,-8.081 z"
             style="fill:#221f1f;fill-opacity:1;fill-rule:nonzero;stroke:none"
             id="path80" /></g><g
           id="g82"
           transform="translate(1052.4165,101.2377)"><path
             d="m 0,0 c -20.816,0 -43.248,16.015 -43.248,45.675 0,9.624 5.503,21.304 9.481,28.467 5.505,6.813 10.59,13.37 15.185,19.706 17.329,23.839 34.33,50.635 48.607,70.911 C 36.637,128.633 55.491,113.077 55.491,66.447 55.491,38.604 35.365,0 0,0 M 95.016,273.887 C 79.794,269.957 70.331,265.531 59.433,256.715 51.35,250.434 44.483,242.169 35.147,229.002 26.847,216.899 15.076,199.414 3.687,182.976 -42.158,116.842 -91.346,49.018 -109.256,33.389 -133.668,12.14 -150.779,3.801 -157.717,3.801 c -4.868,0 -5.304,5.198 -1.598,15.042 3.705,9.807 90.837,240.866 132.142,350.454 h -76.869 c -12.388,-32.085 -90.82,-240.627 -115.051,-305.054 -5.159,-14.784 -12.206,-35.648 -14.295,-52.232 -1.852,-33.958 19.345,-48.468 52.294,-48.468 25.52,0 57.525,17.338 82.191,38.311 2.398,2.021 4.905,4.317 7.429,6.722 6.013,6.502 11.716,12.747 17.256,18.862 4.614,-37.87 42.249,-63.122 87.841,-63.122 59.814,0 115.396,36.436 115.396,104.041 0,65.933 -38.926,98.678 -38.926,139.396 0,10.798 9.536,23.104 21.033,24.206 18.274,1.781 32.914,-14.712 32.914,-14.712 l 36.654,42.902 c 0,0 -30.914,27.586 -85.678,13.738"
             style="fill:#221f1f;fill-opacity:1;fill-rule:nonzero;stroke:none"
             id="path84" /></g></g></g></g></svg>
