<?xml version="1.0" encoding="UTF-8" standalone="no"?>
<!-- Created with Inkscape (http://www.inkscape.org/) -->
<svg
   xmlns:svg="http://www.w3.org/2000/svg"
   xmlns="http://www.w3.org/2000/svg"
   version="1.0"
   width="673.22833"
   height="803.97638"
   id="svg2545">
  <defs
     id="defs2547">



















































































</defs>
  <g
     transform="translate(-846.58156,-277.50152)"
     id="layer1">
    <g
       transform="translate(17.716793,17.68855)"
       id="g7636">
      <g
         transform="matrix(19.565531,0,0,-19.565531,-7856.1275,9159.3591)"
         style="fill:#f3a37d;fill-rule:nonzero;stroke:none;stroke-width:0.199;stroke-miterlimit:4"
         id="q85">
<g
   transform="translate(474.201,417.872)"
   id="xfrm86">
<path
   d="M 0,0 C 0,0.638 0.518,1.11 1.13,1.11 C 1.737,1.11 2.255,0.638 2.255,0 C 2.255,-0.645 1.737,-1.116 1.13,-1.116 C 0.518,-1.116 0,-0.645 0,0 z M 1.13,-0.931 C 1.634,-0.931 2.031,-0.536 2.031,0 C 2.031,0.526 1.634,0.924 1.13,0.924 C 0.62,0.924 0.223,0.526 0.223,0 C 0.223,-0.536 0.62,-0.931 1.13,-0.931 z M 0.895,-0.645 L 0.7,-0.645 L 0.7,0.638 L 1.189,0.638 C 1.492,0.638 1.643,0.526 1.643,0.274 C 1.643,0.044 1.499,-0.057 1.31,-0.08 L 1.675,-0.645 L 1.457,-0.645 L 1.118,-0.089 L 0.895,-0.089 L 0.895,-0.645 z M 1.127,0.076 C 1.292,0.076 1.44,0.088 1.44,0.285 C 1.44,0.444 1.295,0.473 1.159,0.473 L 0.895,0.473 L 0.895,0.076 L 1.127,0.076"
   style="fill:#422d7f;fill-rule:nonzero;stroke:none"
   id="path5550" />

</g>

</g>
      <path
         d="M 988.41209,838.90182 L 952.0202,838.90182 L 952.0202,913.25084 L 893.61709,913.25084 L 893.61709,838.84312 L 859.20132,838.84312 L 846.58156,815.28622 L 1001.0906,815.28622 L 988.41209,838.90182 z M 1021.4583,815.28622 L 1096.5116,815.28622 L 1149.006,913.25084 L 1091.5811,913.25084 L 1082.2288,892.0418 L 1034.4693,892.0418 L 1025.0975,913.25084 L 968.98352,913.25084 L 1021.4583,815.28622 z M 1043.5282,868.4849 L 1073.3461,868.4849 L 1058.9654,836.31917 L 1058.6719,836.31917 L 1043.5282,868.4849 z M 1279.5472,910.45297 C 1268.7861,912.56604 1247.0684,914.95304 1232.2377,914.95304 C 1180.7021,914.95304 1141.1406,905.13114 1141.1406,862.85003 C 1141.1406,824.9516 1183.4217,813.05575 1232.2377,813.05575 C 1253.3685,813.05575 1272.9927,814.91448 1282.8733,816.67538 L 1271.2318,839.46922 C 1264.9904,838.25616 1252.4098,837.51267 1242.627,837.51267 C 1217.5832,837.51267 1200.8546,844.28234 1200.8546,862.8109 C 1200.8546,883.94167 1218.2875,888.98958 1242.4509,888.98958 C 1253.1337,888.98958 1268.3948,887.07216 1279.5472,884.29385 L 1279.5472,910.45297 z M 1370.3117,914.95304 C 1317.1717,914.95304 1286.0038,897.67668 1286.0038,864.25875 C 1286.0038,831.42779 1317.1717,813.58402 1370.3117,813.58402 C 1423.4908,813.58402 1455.3239,831.42779 1455.3239,864.25875 C 1455.3239,897.67668 1423.4908,914.95304 1370.3117,914.95304 z M 1370.3117,892.02224 C 1392.6164,892.02224 1394.1034,874.25673 1394.299,863.96527 C 1394.0838,854.84773 1392.5773,835.88873 1370.3117,835.88873 C 1348.7505,835.88873 1347.0091,854.84773 1347.0091,863.96527 C 1347.0091,874.51109 1349.4157,892.02224 1370.3117,892.02224 z M 1317.6217,1046.1008 L 1330.7893,1021.5656 L 1256.9881,1021.5656 L 1256.9881,948.11661 L 1197.9981,948.11661 L 1197.9981,1026.3592 C 1197.9981,1036.2398 1201.5981,1046.1008 1217.7005,1046.1008 L 1317.6217,1046.1008 z M 1456.7131,1046.1008 L 1469.8807,1021.5656 L 1396.0991,1021.5656 L 1396.0991,948.11661 L 1337.0894,948.11661 L 1337.0894,1026.3592 C 1337.0894,1036.2398 1340.7286,1046.1008 1356.7723,1046.1008 L 1456.7131,1046.1008 z M 1053.7805,948.46879 L 1188.7044,948.46879 L 1176.4368,971.3409 L 1110.9901,971.3409 L 1110.9901,985.42808 L 1173.4629,985.42808 L 1173.4629,1007.4589 L 1110.9901,1007.4589 L 1110.9901,1022.3287 L 1186.0044,1022.3287 L 1186.0044,1045.729 L 1053.7805,1045.729 L 1053.7805,948.46879 z M 1018.1126,995.09345 C 1027.504,996.6 1041.7477,1000.2783 1041.6695,1018.4351 C 1041.6303,1029.7831 1037.1694,1037.5311 1024.8627,1041.9529 C 1015.9408,1045.1225 1003.2232,1045.7877 985.00769,1045.7877 L 894.73233,1045.7877 L 894.73233,948.46879 C 894.73233,948.46879 964.13127,948.46879 980.95762,948.46879 C 1001.6971,948.46879 1019.8343,947.41225 1031.3193,956.17761 C 1036.3868,960.03202 1039.0672,965.15819 1039.0672,972.45613 C 1039.0672,989.88902 1025.8605,994.36953 1018.1126,995.09345 z M 951.74628,985.36939 L 966.42043,985.36939 C 974.52056,985.36939 978.70759,985.25199 982.28808,984.05849 C 986.22075,982.70847 987.88382,979.79321 987.78599,975.64532 C 987.70773,972.45613 986.18162,969.26695 982.17069,967.99519 C 978.86411,966.99735 973.91403,966.99735 966.83131,966.99735 L 951.74628,966.99735 L 951.74628,985.36939 z M 951.74628,1025.7722 L 967.0661,1025.7722 C 976.39885,1025.7722 980.2337,1025.3222 983.46201,1024.07 C 987.19903,1022.6222 989.44906,1019.3547 989.33167,1014.5807 C 989.23384,1010.922 987.74686,1007.4002 983.1294,1005.8154 C 979.6663,1004.661 974.10969,1004.6219 967.49654,1004.6219 L 951.74628,1004.6219 L 951.74628,1025.7722"
         style="fill:#422d7f;fill-rule:nonzero;stroke:none;stroke-width:0.199;stroke-miterlimit:4"
         id="path5554" />
      <path
         d="M 381.6875,38.875 C 359.285,38.875 337.59145,41.14477 316.65625,45.46875 C 338.76535,48.03184 354.82575,62.731902 362.90625,73.0625 C 385.73925,69.36461 410.0214,68.802896 431.25,74.28125 C 488.2248,88.93583 532.61994,141.18105 593.46875,205.0625 C 593.46875,205.0625 611.76315,223.27897 657.78125,229.03125 C 627.06335,119.77732 515.04621,38.875001 381.6875,38.875 z M 265.15625,60.34375 C 165.39163,99.29872 95.96875,187.39863 95.96875,289.84375 L 96.03125,522.09375 L 149.75,522.0625 C 147.28476,507.66227 153.95465,488.73648 168.6875,467.46875 C 168.68749,467.46875 187.87109,440.37673 194.5625,417.09375 C 201.23436,393.81076 195.15625,360.4375 195.15625,360.4375 C 193.96275,341.94809 155.73182,204.58216 241.9375,130.9375 C 241.9375,130.93749 229.84045,86.34634 265.15625,60.34375 z M 664.71875,362.3125 C 605.27862,423.3374 517.9028,478.94235 479.75,498.46875 C 462.5519,507.27322 445.3856,514.9412 428.1875,521.75 L 664.71875,521.6875 L 664.71875,362.3125 z "
         transform="translate(778.28383,238.62652)"
         style="fill:#422d7f;fill-rule:nonzero;stroke:none;stroke-width:0.199;stroke-miterlimit:4"
         id="path5558" />
      <g
         transform="matrix(19.565531,0,0,-19.565531,-7856.1275,9159.3591)"
         style="fill:#f3a37d;fill-rule:nonzero;stroke:none;stroke-width:0.199;stroke-miterlimit:4"
         id="q95">
<g
   transform="translate(455.11,449.503)"
   id="xfrm96">
<path
   d="M 0,0 C -2.256,-2.1 -2.247,-5.002 -1.166,-9.363 C -1.033,-9.899 -0.732,-11.789 -0.703,-12.142 C -0.703,-12.142 -2.074,-13.323 -2.833,-14.997 C -2.833,-14.997 -3.294,-16.236 -3.655,-16.806 L -3.639,-16.831 C -2.527,-15.026 -0.485,-12.937 2.046,-11.28 C 2.046,-11.28 8.042,-6.9 15.689,-5.816 L 15.633,-5.863 C 15.633,-5.863 7.236,-7.592 1.17,-13.605 C -0.73,-15.489 -1.776,-17.407 -1.24,-18.525 C -0.311,-20.457 5.053,-19.72 10.433,-17.133 C 15.813,-14.547 19.998,-10.662 19.017,-8.755 C 17.977,-6.736 12.651,-7.5 7.357,-10.175 L 7.177,-10.233 C 9.532,-8.747 13.636,-6.719 17.837,-6.108 C 18.054,-6.076 18.901,-5.986 19.56,-6.053 C 16.699,-5.795 15.765,-4.592 15.765,-4.592 C 12.873,-1.31 10.829,1.411 8.035,2.244 C 6.998,2.569 5.697,2.551 4.483,2.327 C 3.282,4.068 1.434,3.934 0.589,3.486 C 0.137,3.238 -0.198,2.806 -0.345,2.305 C -0.529,1.816 -0.439,1.067 -0.14,0.35 C 0.904,1.107 2.08,1.658 3.662,2.109 L 3.575,2.047 C 2.133,1.499 1.063,0.909 0.233,0.201 C 0.233,0.201 0.045,0.049 0,0 z M 4.417,1.71 C 7.162,2.046 8.924,-0.435 10.206,-2.438 C 11.556,-4.549 11.987,-5.261 12.642,-5.648 C 13.235,-5.517 13.968,-5.342 15.094,-5.389 C 13.528,-5.098 11.691,-1.333 10.051,0.117 C 8.079,1.862 6.131,2.139 4.312,1.727 L 4.417,1.71 z M 10.111,-16.217 C 15.087,-13.817 18.568,-10.723 17.884,-9.306 C 17.201,-7.888 12.613,-8.684 7.635,-11.083 C 2.659,-13.483 -0.822,-16.578 -0.138,-17.996 C 0.545,-19.413 5.134,-18.617 10.111,-16.217"
   style="fill:#de0071;fill-rule:nonzero;stroke:none"
   id="path5570" />

</g>

</g>
      <path
         d="M 281.125,57.90625 C 270.03252,62.693261 258.60077,75.38206 253.6875,86.96875 C 249.1483,99.82331 246.33775,111.65647 252.03125,131.59375 C 174.02352,202.98837 207.39908,314.49664 213.71875,354.3125 C 213.71875,354.3125 223.42564,396.78849 214.5625,419.40625 C 214.5625,419.40625 228.37291,388.49686 256.3125,363.53125 C 254.7864,349.26798 252.18749,335.74999 252.1875,335.75 C 251.1114,328.84337 249.77011,319.62381 247.1875,309.15625 C 218.09354,191.31306 227.81156,128.68031 339.84375,85.96875 L 341.59375,84.71875 C 312.26505,93.13193 288.75249,103.66035 267.25,119.15625 C 249.60428,77.169844 277.55907,59.899512 281.125,57.90625 z M 576.9375,239.84375 C 427.3395,261.05278 309.99999,346.75 310,346.75 C 224.3421,402.84438 167.2291,484.22527 183.625,518.40625 C 204.71664,562.35044 330.9987,544.00739 478.875,472.90625 C 626.7709,401.80511 722.74432,312.4613 703.6875,267.65625 C 689.6003,234.55137 618.9375,245.5625 618.9375,245.5625 C 536.7427,257.51704 456.4519,297.20687 410.375,326.28125 L 413.9375,325.15625 C 517.5174,272.81846 621.71432,257.87218 642.0625,297.375 C 661.2758,334.6669 579.35634,410.66522 474.09375,461.28125 C 368.83125,511.89728 263.85605,526.30062 245.71875,488.5 C 235.21205,466.62574 255.66924,429.10358 292.84375,392.28125 C 411.54785,274.61415 575.84375,240.75 575.84375,240.75 L 576.9375,239.84375 z M 581.90625,294.0625 C 544.00406,294.47948 483.38566,311.77803 419.46875,342.59375 C 322.11065,389.53146 253.9726,450.09983 267.375,477.84375 C 280.71869,505.56812 370.5169,489.98852 467.875,443.03125 C 565.25259,396.07398 633.37115,335.50561 619.96875,307.78125 C 615.38185,298.251 601.75978,293.84408 581.90625,294.0625 z "
         transform="translate(778.28383,238.62652)"
         style="fill:#422d7f;fill-rule:nonzero;stroke:none;stroke-width:0.199;stroke-miterlimit:4"
         id="path5574" />
      <g
         transform="matrix(19.565531,0,0,-19.565531,-7856.1275,9159.3591)"
         style="fill:#f3a37d;fill-rule:nonzero;stroke:none;stroke-width:0.199;stroke-miterlimit:4"
         id="q99">
<g
   transform="translate(459.531,451.21)"
   id="xfrm100">
<path
   d="M 0,0 C 2.743,0.335 4.505,-2.146 5.788,-4.149 C 7.139,-6.26 7.569,-6.972 8.224,-7.359 C 8.817,-7.228 9.549,-7.053 10.677,-7.1 C 9.111,-6.807 7.273,-3.043 5.633,-1.593 C 3.661,0.151 1.713,0.428 -0.106,0.016 L 0,0"
   style="fill:#ffffff;fill-rule:nonzero;stroke:none"
   id="path5578" />

</g>

</g>
      <g
         transform="matrix(19.565531,0,0,-19.565531,-7856.1275,9159.3591)"
         style="fill:#f3a37d;fill-rule:nonzero;stroke:none;stroke-width:0.199;stroke-miterlimit:4"
         id="q103">
<g
   transform="translate(463.134,437.431)"
   id="xfrm104">
<path
   d="M 0,0 C -1.905,-0.534 -3.516,-1.385 -4.688,-2.136 C -4.688,-2.136 -4.537,-4.261 -2.115,-3.867 C -2.115,-3.867 -4.488,-5.074 -6.18,-3.202 C -6.36,-3.339 -6.769,-3.701 -6.769,-3.701 L -6.785,-3.713 C -6.104,-4.421 -5.172,-5.069 -3.649,-4.951 C -1.464,-4.781 0.34,-3.265 0.239,-1.225 C 0.214,-0.717 0.184,-0.465 0,0"
   style="fill:#f8e51d;fill-rule:nonzero;stroke:none"
   id="path5586" />

</g>

</g>
    </g>
  </g>
</svg>
